<?xml version="1.0" encoding="utf-8"?>
<svg xmlns="http://www.w3.org/2000/svg" viewBox="0 0 2538.902 670.002">
  <g transform="matrix(0.046839, 0, 0, -0.049139, 1.447627, 398.175964)" fill="#000000" stroke="none" style="">
    <path d="M 5579.48 7807.91 C 5479.77 7780.25 5392.82 7664.59 5392.82 7564.01 C 5392.82 7521.26 5415.84 7435.77 5443.96 7370.39 C 5502.77 7234.61 5523.23 7249.69 5175.51 7191.85 C 4682.03 7111.4 4191.1 6950.47 3654.19 6688.96 C 2114.96 5937.13 989.954 4571.75 570.635 2942.36 C 440.234 2434.44 399.327 2087.42 396.769 1511.61 C 396.769 940.833 435.121 616.453 573.19 75.841 C 841.658 -965.16 1488.54 -2026.3 2286.27 -2725.3 C 2385.99 -2813.3 2513.84 -2926.5 2575.19 -2981.8 L 2682.59 -3079.9 L 2682.59 -3462.1 C 2682.59 -3673.3 2672.35 -3859.4 2659.58 -3877 C 2649.34 -3897.1 2547.07 -3937.3 2437.13 -3967.5 L 2235.14 -4022.8 L 2051.05 -4374.9 C 1813.25 -4827.5 1772.34 -4940.6 1813.25 -5041.1 C 1877.17 -5192 1866.95 -5189.5 2876.91 -5189.5 L 3802.49 -5189.5 L 3868.96 -5111.6 C 3932.88 -5036.1 3935.44 -5026.1 3940.55 -4628.8 C 3945.67 -4405 3948.22 -4128.4 3948.22 -4012.7 C 3948.22 -3899.6 3953.32 -3806.5 3955.88 -3806.5 C 3960.99 -3806.5 4137.43 -3864.4 4347.07 -3934.8 L 4728.05 -4065.6 L 4728.05 -4508.1 C 4728.05 -4902.9 4733.15 -4958.2 4779.19 -5031.1 C 4884.02 -5202.1 4817.54 -5194.6 6254.48 -5192 C 7701.65 -5187 7658.19 -5192 7750.23 -5013.4 C 7788.58 -4940.6 7796.25 -4855.1 7796.25 -4495.5 L 7796.25 -4065.6 L 8136.31 -3947.3 C 8320.41 -3882 8494.27 -3821.6 8517.29 -3814.1 C 8555.64 -3804 8560.75 -3856.8 8568.43 -4420.1 L 8576.09 -5038.7 L 8660.48 -5119.2 L 8744.84 -5202.1 L 9657.64 -5194.6 L 10570.4 -5187 L 10647.1 -5114.1 C 10700.8 -5061.3 10721.3 -5016.1 10721.3 -4955.7 C 10721.3 -4850 10327.5 -4047.9 10258.5 -4012.7 C 10232.9 -4000.2 10146 -3977.5 10064.2 -3959.9 C 9841.72 -3912.2 9841.72 -3914.7 9841.72 -3462.1 L 9841.72 -3069.8 L 9961.89 -2966.7 C 10465.6 -2536.7 10841.5 -2126.9 11148.3 -1671.7 C 11728.7 -814.29 12032.9 75.841 12119.9 1149.52 C 12178.7 1886.28 12053.4 2771.37 11784.9 3485.5 C 11677.5 3779.7 11414.2 4305.23 11240.3 4584.33 C 10516.7 5728.42 9355.93 6611.02 8013.59 7033.43 C 7768.13 7111.4 7220.98 7232.08 7118.7 7232.08 C 7029.2 7232.08 7021.54 7267.3 7080.35 7380.45 C 7141.7 7498.63 7144.26 7586.65 7093.12 7682.19 C 7021.54 7823.01 6944.83 7835.58 6269.83 7833.06 C 5934.87 7833.06 5625.5 7820.48 5579.48 7807.91 Z M 6113.86 6060.35 C 6124.09 5861.69 6159.88 5798.84 6262.15 5798.84 C 6364.42 5798.84 6400.22 5861.69 6410.45 6060.35 C 6418.12 6216.24 6428.36 6251.43 6464.15 6251.43 C 6535.73 6251.43 7149.37 6176.01 7251.66 6155.88 L 7348.82 6135.76 L 7356.47 4591.87 C 7359.04 3470.4 7369.27 3040.42 7392.28 3015.27 C 7438.3 2959.97 7573.8 2985.12 7609.6 3058.03 C 7635.17 3105.79 7642.85 3460.35 7642.85 4586.85 L 7642.85 6050.28 L 7714.44 6035.2 C 7783.47 6017.59 8082.64 5906.96 8213.02 5846.6 L 8282.07 5816.44 L 8282.07 1519.15 L 8282.07 -2778.1 L 8149.11 -2836 C 7734.91 -3017 7131.49 -3157.8 6602.21 -3200.6 C 5901.64 -3255.9 5004.19 -3110 4382.89 -2838.5 L 4249.91 -2783.2 L 4237.14 -1151.2 C 4229.47 -253.57 4226.91 1240.04 4232.03 2165.39 C 4237.14 3093.24 4242.26 4292.65 4242.26 4833.26 L 4242.26 5816.44 L 4395.67 5884.32 C 4554.18 5954.73 4822.65 6050.28 4861.01 6050.28 C 4871.24 6050.28 4881.46 5378.91 4881.46 4556.67 C 4881.46 3231.53 4886.59 3058.03 4922.38 3022.83 C 4968.4 2975.05 5101.35 2970.02 5129.48 3015.27 C 5139.72 3030.37 5155.04 3741.97 5162.71 4591.87 L 5175.51 6138.29 L 5354.48 6170.98 C 5571.81 6208.7 5853.05 6243.89 5996.24 6248.93 L 6103.65 6251.43 L 6113.86 6060.35 Z M 3935.44 1509.09 L 3935.44 -2629.8 L 3840.84 -2571.9 C 3669.52 -2471.4 3321.8 -2240 3306.46 -2219.9 C 3298.79 -2207.3 3293.65 -525.13 3293.65 1516.63 C 3296.23 4307.73 3303.9 5235.59 3326.91 5263.24 C 3365.26 5308.49 3879.18 5647.96 3912.42 5647.96 C 3925.2 5647.96 3935.44 4096.51 3935.44 1509.09 Z M 8739.73 5580.07 C 8803.65 5544.87 8941.72 5454.34 9043.99 5378.91 L 9228.08 5245.64 L 9228.08 1516.63 L 9228.08 -2212.4 L 9159.05 -2265.2 C 9046.56 -2345.6 8709.05 -2564.4 8647.68 -2597.1 L 8588.87 -2627.2 L 8588.87 1511.61 C 8588.87 3787.24 8596.54 5647.96 8606.78 5647.96 C 8614.45 5647.96 8675.82 5617.79 8739.73 5580.07 Z M 3004.73 1519.15 C 3009.87 -484.9 3004.73 -1923.2 2991.96 -1930.7 C 2966.38 -1948.3 2634 -1606.4 2465.26 -1392.6 L 2350.2 -1246.8 L 2350.2 1519.15 L 2350.2 4285.1 L 2460.15 4420.89 C 2623.78 4629.58 2945.94 4971.57 2971.51 4961.5 C 2981.73 4958.99 2997.07 3410.05 3004.73 1519.15 Z M 9767.57 4762.85 C 9872.4 4652.22 10005.4 4496.34 10066.7 4420.89 L 10174.1 4285.1 L 10174.1 1516.63 L 10174.1 -1249.3 L 9984.91 -1478.1 C 9803.38 -1696.9 9537.46 -1968.4 9532.35 -1945.8 C 9529.78 -1938.3 9524.67 -379.29 9519.56 1519.15 C 9511.9 4340.41 9517 4969.04 9545.13 4969.04 C 9563.04 4969.04 9662.76 4876.02 9767.57 4762.85 Z M 2068.96 1504.06 C 2066.38 -1020.5 2079.17 -872.13 1910.41 -512.56 C 1698.2 -57.43 1590.81 282.021 1506.44 792.465 C 1457.86 1086.65 1450.19 1194.79 1462.96 1634.83 C 1475.75 2210.64 1524.33 2499.81 1685.41 2982.58 C 1792.81 3309.47 2020.36 3812.38 2051.05 3794.78 C 2061.28 3789.75 2068.96 2758.8 2068.96 1504.06 Z M 10647.1 3465.38 C 10964.2 2753.76 11086.9 2127.67 11061.3 1363.27 C 11035.8 618.962 10915.6 148.75 10555.1 -630.75 C 10521.9 -703.65 10486.1 -764.02 10475.8 -764.02 C 10463 -764.02 10455.4 269.447 10455.4 1531.73 C 10457.9 3510.65 10463 3817.41 10493.7 3777.18 C 10511.6 3752.03 10583.2 3611.21 10647.1 3465.38 Z" style="fill: rgb(139, 0, 0);"/>
    <path d="M 5771.24 5494.57 C 5732.9 5474.45 5725.23 5434.22 5725.23 5273.31 C 5725.23 5137.53 5735.45 5072.13 5758.46 5064.59 C 5773.8 5057.05 6014.13 5052.02 6287.73 5054.54 L 6786.3 5057.05 L 6793.97 5258.21 C 6799.09 5424.16 6793.97 5464.4 6758.18 5489.55 C 6701.93 5529.78 5837.71 5534.82 5771.24 5494.57 Z" style="fill: rgb(139, 0, 0);"/>
    <path d="M 5720.1 3819.92 L 5712.43 2944.87 L 5640.85 2796.52 C 5587.14 2680.86 5502.77 2580.29 5280.34 2369.06 C 5024.65 2122.64 4978.62 2064.8 4886.59 1876.22 C 4830.33 1758.04 4771.52 1594.6 4756.17 1514.12 C 4738.29 1416.06 4728.05 686.852 4728.05 -587.99 L 4728.05 -2541.8 L 4953.07 -2607.1 C 5794.25 -2851 6635.45 -2861.1 7463.87 -2634.8 C 7596.82 -2597.1 7727.23 -2556.8 7752.79 -2544.3 C 7793.7 -2524.2 7796.25 -2406 7796.25 -580.45 C 7796.25 1576.99 7796.25 1551.84 7624.94 1898.85 C 7545.69 2057.26 7484.32 2135.21 7243.98 2366.54 C 7021.54 2580.29 6937.16 2678.35 6883.46 2794.01 L 6811.88 2944.87 L 6804.2 3819.92 L 6796.53 4692.45 L 6262.15 4692.45 L 5727.78 4692.45 L 5720.1 3819.92 Z M 6568.98 -525.13 C 6845.11 -618.17 7072.68 -869.62 7146.82 -1173.9 C 7185.17 -1322.2 7185.17 -1370 7159.6 -1513.3 C 7075.23 -1968.4 6719.83 -2257.6 6249.37 -2257.6 C 6083.18 -2257.6 6019.26 -2247.6 5899.08 -2192.2 C 5697.09 -2099.2 5536.02 -1945.8 5436.28 -1747.2 C 5362.14 -1598.8 5354.48 -1558.6 5354.48 -1367.5 C 5354.48 -1189 5367.27 -1131.1 5420.96 -1015.5 C 5638.28 -567.87 6098.51 -371.75 6568.98 -525.13 Z" style="fill: rgb(139, 0, 0);"/>
    <path d="M 5909.32 -736.34 C 5840.27 -779.1 5886.31 -852.01 6001.35 -874.65 C 6103.65 -897.27 6108.75 -904.82 6108.75 -990.31 C 6108.75 -1053.2 6090.84 -1098.4 6055.05 -1131.1 C 5914.43 -1254.3 5909.32 -1468.1 6044.81 -1593.8 C 6101.07 -1644.1 6108.75 -1674.3 6108.75 -1812.6 C 6108.75 -1981 6159.88 -2071.6 6257.04 -2071.6 C 6359.31 -2071.6 6400.22 -2008.7 6410.45 -1830.2 C 6420.68 -1684.3 6433.47 -1644.1 6494.84 -1573.7 C 6556.18 -1505.8 6568.98 -1468.1 6568.98 -1367.5 C 6568.98 -1264.4 6556.18 -1229.2 6492.27 -1158.8 C 6436.03 -1095.9 6415.56 -1045.6 6415.56 -980.25 C 6415.56 -897.27 6420.68 -889.73 6487.17 -889.73 C 6581.75 -889.73 6653.34 -836.92 6640.56 -774.07 C 6632.9 -731.31 6604.77 -726.29 6287.73 -718.75 C 6098.51 -716.23 5927.21 -723.77 5909.32 -736.34 Z" style="fill: rgb(139, 0, 0);"/>
    <path d="M 17201.5 4154.46 C 17136.1 4087.35 17131.8 3814.94 17131.8 1075.23 C 17131.8 -1881.5 17131.8 -1932.9 17213.8 -2011.8 C 17292 -2086.8 17349.3 -2090.8 18675.4 -2090.8 C 19545.8 -2090.8 20079.5 -2075 20132.8 -2051.4 C 20202.7 -2011.8 20210.9 -1964.5 20210.9 -1585.4 C 20210.9 -1305.2 20194.5 -1143.3 20161.6 -1111.8 C 20124.6 -1076.2 19857.6 -1064.5 19217.6 -1064.5 L 18322.4 -1064.5 L 18322.4 -235.37 L 18322.4 593.632 L 19053 593.632 C 19566.4 593.632 19800.3 609.432 19833.2 641.032 C 19866.1 672.632 19882.4 838.332 19882.4 1134.53 C 19882.4 1533.17 19874.2 1580.55 19804.5 1620.02 C 19755.2 1643.72 19426.8 1659.52 19024.3 1659.52 L 18322.4 1659.52 L 18322.4 2429.31 L 18322.4 3199.12 L 19258.3 3207 L 20190.3 3218.86 L 20202.7 3668.89 C 20210.9 3964.95 20198.4 4134.73 20165.7 4170.23 C 20128.8 4213.66 19861.9 4225.53 18691.9 4225.53 C 17365.8 4225.53 17263 4221.61 17201.5 4154.46 Z" style="fill: rgb(139, 0, 0);"/>
    <path d="M 21040.2 4178.14 C 21003.1 4142.59 20990.7 3400.44 20990.7 1083.13 C 20990.7 -1636.7 20999.2 -1972.3 21056.5 -2027.7 C 21110 -2082.9 21298.7 -2090.8 22489.2 -2090.8 C 23679.9 -2090.8 23868.6 -2082.9 23922 -2027.7 C 24004.2 -1948.6 24016.5 -1186.7 23938.6 -1111.8 C 23901.4 -1076.2 23642.6 -1064.5 23035.2 -1064.5 L 22181.2 -1064.5 L 22181.2 1513.42 C 22181.2 3964.95 22177.3 4099.17 22107.5 4158.4 C 22046 4213.66 21939.2 4225.53 21561.5 4225.53 C 21249.4 4225.53 21073.1 4209.71 21040.2 4178.14 Z" style="fill: rgb(139, 0, 0);"/>
    <path d="M 24693.7 4178.14 C 24624 4111.05 24624 -1976.4 24693.7 -2043.5 C 24763.8 -2110.4 25674.8 -2110.4 25744.6 -2043.5 C 25781.5 -2007.9 25793.9 -1261.8 25793.9 1075.23 C 25793.9 4067.58 25793.9 4146.56 25716 4186.03 C 25600.8 4241.28 24755.4 4237.36 24693.7 4178.14 Z" style="fill: rgb(139, 0, 0);"/>
    <path d="M 26565.8 4182.07 C 26524.7 4162.35 26491.9 4118.95 26491.9 4087.35 C 26491.9 4055.76 26762.8 3432.01 27091.2 2697.75 C 27423.7 1963.48 27711.3 1316.05 27735.8 1260.8 C 27772.7 1169.93 27694.7 976.632 27074.6 -377.47 C 26684.9 -1222.2 26368.6 -1936.8 26368.6 -1960.5 C 26368.6 -2063.1 26541.3 -2098.7 27009.1 -2082.9 C 27411.4 -2071.1 27485.4 -2059.4 27550.9 -1992.1 C 27633.3 -1909.3 28360 -187.97 28404.9 33.032 C 28421.3 104.132 28442 159.432 28458.5 159.432 C 28470.4 159.432 28516 64.632 28552.9 -53.868 C 28737.3 -610.47 29300 -1921.1 29386.2 -2000 C 29476.5 -2075 29534.1 -2082.9 29960.9 -2086.8 C 30482.6 -2090.8 30617.9 -2055.3 30588.9 -1921.1 C 30576.7 -1873.8 30260.8 -1155.1 29882.8 -326.17 L 29193.1 1177.93 L 29833.7 2587.23 C 30186.6 3360.94 30473.9 4028.1 30473.9 4071.56 C 30473.9 4111.05 30436.9 4162.35 30396.1 4186.03 C 30277.2 4245.23 29439.5 4237.36 29353.3 4178.14 C 29287.6 4130.75 28544.4 2255.59 28544.4 2137.16 C 28544.4 2002.98 28458.5 2200.3 28117.8 3120.17 C 27895.7 3708.37 27723.5 4114.98 27674.1 4158.4 C 27604.3 4213.66 27510.1 4225.53 27111.7 4225.53 C 26849.1 4225.53 26602.6 4205.75 26565.8 4182.07 Z" style="fill: rgb(139, 0, 0);"/>
    <path d="M 31393.4 4193.94 C 31257.9 4111.05 31253.9 4008.39 31274.6 1023.93 L 31294.9 -1952.5 L 31381.3 -2019.7 C 31500.1 -2114.5 32214.6 -2122.4 32354.4 -2027.7 L 32444.2 -1968.4 L 32444.2 1067.33 L 32444.2 4103.14 L 32354.4 4162.35 C 32284.1 4209.71 32156.9 4225.53 31849 4225.53 C 31623.5 4225.53 31418.3 4209.71 31393.4 4193.94 Z" style="fill: rgb(139, 0, 0);"/>
    <path d="M 33458.3 4154.46 C 33392.5 4087.35 33388 3814.94 33388 1035.83 C 33388 -1932.9 33388 -2011.8 33466.4 -2051.4 C 33581.3 -2106.6 34427 -2102.7 34488.7 -2043.5 C 34525.4 -2007.9 34537.9 -1688.1 34537.9 -847.27 C 34537.9 -211.67 34545.9 313.332 34554.2 321.332 C 34562.5 329.132 34706.2 333.132 34874.4 325.132 L 35174.3 313.332 L 35543.6 -701.17 C 35995.1 -1940.8 36023.8 -2003.8 36159.3 -2051.4 C 36298.8 -2102.7 37004.9 -2102.7 37140.3 -2051.4 C 37201.9 -2031.6 37247.2 -1984.2 37247.2 -1944.8 C 37247.2 -1905.2 37033.9 -1340.8 36774.9 -689.37 C 36347.9 384.432 36311.1 498.932 36376.8 534.332 C 36536.7 625.232 36853.2 972.632 36943.4 1162.13 C 37078.7 1450.28 37123.8 1714.8 37123.8 2247.7 C 37123.8 2930.68 36980.4 3364.92 36631.3 3728.08 C 36237 4138.64 35871.6 4225.53 34513.5 4225.53 C 33606 4225.53 33519.7 4217.62 33458.3 4154.46 Z M 35588.9 3135.97 C 35806.1 2981.98 35859.6 2867.49 35904.7 2492.47 C 35937.5 2235.88 35933.4 2066.1 35900.5 1896.39 C 35810.2 1418.72 35580.5 1268.65 34940.2 1264.78 L 34537.9 1264.78 L 34537.9 2255.59 L 34537.9 3246.48 L 35005.6 3230.69 C 35404.1 3222.79 35494.2 3207 35588.9 3135.97 Z" style="fill: rgb(139, 0, 0);"/>
    <path d="M 38060 4182.07 C 37990 4146.56 37986.2 3953.09 37986.2 1067.33 C 37986.2 -1932.9 37986.2 -2011.8 38064 -2051.4 C 38117.2 -2075 38651.1 -2090.8 39517.3 -2090.8 C 41151.3 -2090.8 41024.2 -2134.1 41024.2 -1569.6 C 41024.2 -1040.8 41073.3 -1064.5 40026.6 -1064.5 L 39176.7 -1064.5 L 39176.7 1493.68 C 39176.7 3743.89 39168.4 4059.69 39110.7 4138.64 C 39053.6 4221.61 39016.7 4225.53 38589.7 4225.53 C 38335.3 4225.53 38096.9 4205.75 38060 4182.07 Z" style="fill: rgb(139, 0, 0);"/>
    <path d="M 41771.2 4178.14 C 41701.2 4111.05 41701.2 -1976.4 41771.2 -2043.5 C 41832.8 -2102.7 42678.4 -2106.6 42793.1 -2051.4 C 42871.3 -2011.8 42871.3 -1932.9 42871.3 1059.43 C 42871.3 3396.46 42858.9 4142.59 42822 4178.14 C 42789.3 4209.71 42612.6 4225.53 42296.7 4225.53 C 41980.6 4225.53 41803.8 4209.71 41771.2 4178.14 Z" style="fill: rgb(139, 0, 0);"/>
    <path d="M 43844.5 4154.46 C 43778.5 4087.35 43774.5 3814.94 43774.5 1055.53 L 43774.5 -1968.4 L 43864.6 -2027.7 C 44004.1 -2122.4 44768 -2118.4 44866.5 -2023.6 C 44932.1 -1960.5 44936.2 -1822.4 44911.5 -38.068 L 44882.5 1876.61 L 45605.5 21.232 C 46471.7 -2217.1 46377.2 -2003.8 46508.6 -2051.4 C 46685 -2118.4 47395.4 -2102.7 47501.6 -2027.7 L 47592.3 -1968.4 L 47592.3 1043.63 L 47592.3 4055.76 L 47498 4138.64 C 47411.8 4217.62 47358.2 4225.53 46997.3 4225.53 C 46689.2 4225.53 46578.5 4209.71 46520.8 4162.35 C 46454.8 4107.08 46451.1 3964.95 46467.6 2200.3 C 46475.8 1154.13 46471.7 325.132 46459.3 356.732 C 46446.8 388.432 46126.8 1233.13 45753.2 2231.94 C 45379.9 3230.69 45034.8 4087.35 44989.7 4138.64 C 44915.8 4221.61 44874.5 4225.53 44410.8 4225.53 C 43979.8 4225.53 43901.6 4217.62 43844.5 4154.46 Z" style="fill: rgb(139, 0, 0);"/>
    <path d="M 48536.8 4146.56 C 48454.5 4067.58 48454.5 4028.1 48462.7 1043.63 C 48474.8 -1897.3 48479.1 -1980.3 48553.1 -2035.5 C 48680.5 -2122.4 51393.7 -2118.4 51525.3 -2027.7 C 51607.3 -1972.3 51615.6 -1936.8 51615.6 -1601.3 C 51615.6 -1040.8 51664.4 -1068.3 50576.6 -1056.6 L 49682.1 -1044.6 L 49682.1 -235.37 L 49682.1 573.932 L 50404.4 593.632 C 50983.1 609.432 51135.3 625.232 51164 672.632 C 51184.2 704.232 51204.9 913.432 51204.9 1134.53 C 51204.9 1446.34 51192.4 1549 51139.1 1596.34 C 51086.2 1647.66 50958.5 1659.52 50371.8 1659.52 L 49665.3 1659.52 L 49673.4 2417.46 L 49682.1 3179.38 L 50560.5 3191.23 C 51262.5 3199.12 51451.2 3210.91 51492.2 3258.33 C 51517.1 3285.94 51549.8 3479.41 51562.2 3684.68 C 51599.1 4265.01 51710.1 4225.53 50014.5 4225.53 C 48667.9 4225.53 48614.5 4221.61 48536.8 4146.56 Z" style="fill: rgb(139, 0, 0);"/>
  </g>
  <rect x="465.577" y="157.501" width="0.44" height="0.44" style="fill: rgb(216, 216, 216); stroke: rgb(0, 0, 0); stroke-width: 0.55;"/>
</svg>